<svg xmlns="http://www.w3.org/2000/svg" viewBox="0 0 900 700">
<defs><linearGradient id="bg" x1="0" x2="1"><stop stop-color="#f5d8d0"/><stop offset="1" stop-color="#fff8f2"/></linearGradient><linearGradient id="n" x1="0" x2="1"><stop stop-color="#7d0f2d"/><stop offset="1" stop-color="#b02b4d"/></linearGradient></defs>
<rect width="900" height="700" fill="url(#bg)"/><ellipse cx="460" cy="360" rx="330" ry="230" fill="#f0c9bf" opacity=".55"/><path d="M250 510c80-110 95-315 190-330 85-13 136 140 85 256-45 102-152 124-275 74z" fill="#d89e8e"/><path d="M410 180c40 35 74 105 32 177-35 60-110 82-158 44-46-36-34-121 13-171 33-35 78-61 113-50z" fill="#e8b9aa"/><ellipse cx="580" cy="235" rx="42" ry="115" transform="rotate(-22 580 235)" fill="url(#n)"/><ellipse cx="650" cy="330" rx="44" ry="124" transform="rotate(-18 650 330)" fill="url(#n)"/><ellipse cx="500" cy="325" rx="42" ry="112" transform="rotate(8 500 325)" fill="url(#n)"/><ellipse cx="420" cy="420" rx="39" ry="105" transform="rotate(16 420 420)" fill="url(#n)"/><circle cx="710" cy="265" r="34" fill="none" stroke="#bd8757" stroke-width="12"/></svg>
